# xmcd CD database file
#
# Track frame offsets:
#	183
#	20535
#	36008
#	60245
#	80063
#	98318
#	119075
#	134110
#	148880
#	163123
#	179048
#
# Disc length: 2609 seconds
#
# Revision: 0
# Processed by: cddbd v1.5.2PL0 Copyright (c) Steve Scherf et al.
# Submitted via: CDex 1.70beta2
#
DISCID=9e0a2f0b
DTITLE=T&R Band - live at the Limmatquai 82 Jazz Club Zürich
DYEAR=1982
DGENRE=Jazz
TTITLE0=Lazy River
TTITLE1=Margie
TTITLE2=Tin Roof Blues
TTITLE3=Old Steamboat
TTITLE4=I sent for you yesterday and here you come today
TTITLE5=I just called to say I love you
TTITLE6=Darlin' Nelly Gray
TTITLE7=Harlem Bound
TTITLE8=Sentimental Journey
TTITLE9=Satanco
TTITLE10=Frankie and Johnny
EXTD=YEAR: 1982
EXTT0=
EXTT1=
EXTT2=
EXTT3=
EXTT4=
EXTT5=
EXTT6=
EXTT7=
EXTT8=
EXTT9=
EXTT10=
PLAYORDER=
